<svg xmlns="http://www.w3.org/2000/svg" xmlns:xlink="http://www.w3.org/1999/xlink" xmlns:svgjs="http://svgjs.com/svgjs" id="SvgjsSvg1001" version="1.1" viewBox="0 101.06 288 85.88"><defs id="SvgjsDefs1002"/><g id="SvgjsG1008"><svg xmlns="http://www.w3.org/2000/svg" version="1.0" viewBox="41.14 2707.24 7434.26 2216.95" width="288" height="288"><g transform="matrix(.1 0 0 -.1 0 7500)" fill="#b76e79" class="color000 svgShape"><path d="M54340 47923c-446-10-760-31-1160-79-1486-176-2827-629-4080-1377-501-299-988-650-1390-1001-170-149-532-513-664-667-700-824-1063-1671-1127-2629-50-758 128-1408 530-1944 450-598 1190-1059 2041-1270 478-120 869-169 1443-183 238-6 267-8 263-22-3-9-17-88-31-176-15-88-30-163-33-166-4-4-108-11-232-17-980-49-1990-337-3090-883-928-460-1654-971-2310-1628-361-362-629-687-909-1106-633-945-971-1888-1051-2930-23-300-12-763 26-1075 138-1149 657-2112 1534-2849 1055-887 2401-1291 4103-1232 1625 57 3139 464 4672 1254 1153 594 2044 1238 2784 2012 663 695 1203 1568 1686 2730 166 399 375 1000 595 1715 119 385 366 1125 470 1410 253 691 465 1147 857 1840 160 282 521 881 551 915 15 17 64 61 107 100 518 454 1030 977 1544 1575 767 893 1060 1385 973 1632-88 249-336 322-616 181-163-82-323-210-561-448-318-316-672-732-1049-1227-70-93-129-168-131-168-5 0 23 61 115 255 215 454 393 981 484 1436 109 537 123 1005 51 1649l-23 205 72 77c39 42 120 130 180 195 528 569 853 1114 948 1586 30 147 32 406 5 542-48 235-139 408-295 557-147 140-311 226-537 282-216 54-569 66-816 28-294-45-702-152-1111-291-114-39-216-71-226-71-11 0-39 15-63 33-494 371-1219 723-1889 917-645 186-1272 281-2050 310-248 9-319 10-590 3zm1030-797c817-67 1438-202 2035-443 247-100 672-317 682-348 2-6-68-42-154-80-719-314-1542-725-2193-1092-2491-1409-4188-3062-5036-4907-87-189-161-367-233-561l-59-160-338 0c-328 1-475 9-744 41-1204 145-2085 641-2449 1380-128 259-192 515-210 833-45 830 262 1632 917 2392 464 539 1142 1084 1947 1566 1411 847 2918 1305 4575 1393 243 13 1039 4 1260-14zm5546-849c168-55 233-140 254-331 33-288-120-665-428-1061-77-99-235-285-242-285-4 0-24 44-45 98-51 131-197 432-274 567-150 261-356 541-549 748-30 32-51 62-46 66 27 24 389 140 552 176 191 43 299 54 507 51 174-3 197-5 271-29zm-1927-634c428-432 740-968 900-1546 22-82 36-61-154-224-1761-1505-4176-2923-6298-3697-326-119-885-301-895-292-9 10 253 403 466 701 719 1002 1670 2040 2762 3011 857 762 1786 1437 2662 1933 180 101 421 231 432 231 5 0 61-53 125-117zm1038-2802c-10-486-63-857-182-1281-120-426-296-839-539-1265-116-203-130-239-130-345 0-72 4-94 27-142 35-72 97-134 167-167 75-36 203-37 267-3 23 12 47 22 52 22 9 0-243-392-303-473-34-46-400-472-530-617-783-875-1547-1631-2201-2176-646-539-1208-917-1760-1185-176-85-352-161-394-171-12-2-18 36-32 205-61 714-261 1268-636 1759-99 131-347 380-483 488-289 228-654 427-1031 564-155 56-392 127-519 157-52 12-105 25-117 30l-21 8 20 53c60 160 183 419 280 590 44 78 53 89 86 97 20 5 127 33 237 61 1406 362 2892 979 4430 1838 1108 619 2204 1363 3160 2146 116 94 142 112 149 98 5-9 6-134 3-291zm-9915-5447c63-727 239-1318 541-1822 410-683 1026-1164 1747-1365 334-93 581-127 970-133 247-3 265-5 262-21-9-56-81-287-124-403-164-437-434-877-815-1330-129-153-539-562-683-682-520-432-980-660-1460-724-219-28-444-12-620 46-262 87-488 294-579 530-52 133-72 302-55 448 4 28 10 52 13 52 4 0 21-25 40-56 92-153 278-275 491-321 102-21 339-24 440-4 397 78 762 425 874 831 41 146 39 390-4 564-67 267-260 489-511 586-242 93-561 112-814 49-267-67-491-205-726-446-275-281-442-584-528-953-34-151-44-268-38-478 6-216 24-322 87-493 190-522 688-937 1270-1058 172-35 297-44 518-38 487 14 954 154 1427 427 706 408 1461 1174 1946 1976 266 440 484 980 584 1444 15 69 32 142 38 164l12 38 145 52c818 296 1690 840 2648 1655 79 68 146 120 149 118 6-6-483-815-782-1292-947-1514-1790-2717-2613-3728-608-747-1251-1417-1797-1873-1383-1156-2912-1717-4580-1681-511 11-874 58-1290 166-549 143-1022 377-1455 720-128 101-399 372-498 498-340 431-529 892-608 1483-23 166-26 703-6 930 96 1083 422 2017 1027 2940 527 802 1334 1627 2140 2186 826 573 1736 951 2695 1119 172 30 479 74 495 71 6-2 17-88 27-192zm1479 101c474-120 886-316 1214-575 100-79 287-261 370-360 352-421 555-988 567-1579l3-135-25-7c-39-11-476-10-591 1-460 46-823 189-1129 446-285 239-471 547-559 924-72 305-68 775 9 1180 22 114 26 130 36 130 3 0 50-11 105-25zM19431 46679c-115-16-326-73-457-124-491-193-991-558-1569-1146-765-778-1375-1645-1911-2714-80-159-153-298-162-308-8-9-101-70-206-134-474-289-1171-730-1740-1102-153-100-280-180-282-178-2 1 5 70 16 152 43 341 53 780 25 1068-79 812-386 1445-943 1943-468 418-1034 656-1773 745-319 39-861 30-1309-22-1382-160-2830-762-4203-1746-1214-871-2201-1843-2949-2903-742-1053-1221-2125-1432-3205-142-728-163-1499-61-2212 205-1420 891-2496 2045-3207 52-32 97-60 99-62 2-1-23-58-54-126-212-457-351-928-396-1348-15-142-15-459 0-600 44-409 190-893 396-1307 134-270 274-454 420-552 107-71 158-86 290-85 99 0 116 3 166 27 237 114 286 390 112 631-21 28-40 53-44 56-14 12-120 163-171 245-249 401-370 820-371 1285 0 286 43 536 150 865 55 169 212 555 225 555 2 0 51-16 109-36 611-208 1320-307 2084-291 1676 36 3138 389 4600 1112 1001 495 1927 1133 2865 1973 221 198 760 734 922 917 362 409 665 820 892 1208 478 817 872 2029 1442 4427 236 992 459 1846 491 1882 8 9 65 47 126 84 1409 855 2763 2001 3284 2781 192 287 283 535 283 765 0 133-20 223-71 328-81 166-240 287-444 341-93 25-368 35-494 18zm244-739c8-14-41-156-78-220-270-479-1031-1202-2007-1907-197-142-362-254-367-249-6 5 42 100 130 256 295 526 667 1025 1063 1425 391 395 730 616 1054 685 94 20 195 25 205 10zm-9365-1810c690-63 1222-322 1608-785 204-243 354-553 426-878 50-225 60-332 60-627 0-291-10-414-60-720-44-271-152-738-177-769-7-8-169-119-362-246-1821-1203-3393-2352-4643-3394-156-130-287-237-292-239-5-2 6 32 24 75 105 252 108 585 6 839-75 187-213 336-395 424-164 80-315 111-552 111-266 0-467-47-698-161-158-78-288-170-413-293-397-390-592-862-592-1431 0-529 184-1006 546-1421l65-76-38-44c-21-24-123-137-227-252-567-624-1095-1288-1467-1846-57-86-110-156-117-157-19 0-180 123-287 219-445 402-728 923-860 1586-138 691-100 1642 101 2543 318 1425 1044 2810 2189 4177 1045 1247 2156 2179 3253 2729 678 340 1364 547 2037 616 290 30 658 38 865 20zm4520-2954c0-2-13-40-29-83-17-43-84-226-150-408-440-1216-878-2356-1107-2880-410-942-1114-2066-1833-2929-397-477-910-987-1366-1361-871-714-1835-1254-2805-1572-1006-330-2152-433-3060-277-263 46-594 128-713 179-46 19-55-1 120 259 333 491 629 880 1023 1346 184 217 511 581 563 627l35 31 69-25c108-40 310-99 413-121 220-48 353-62 575-62 1061 0 2185 512 3315 1509 698 616 1305 1311 1805 2066 486 734 817 1416 1126 2320l24 70 340 228c601 403 1635 1085 1648 1086 4 1 7-1 7-3zm-3174-2148c-221-484-592-1110-946-1597-596-818-1438-1644-2155-2116-524-344-999-549-1484-639-230-43-535-58-721-36-111 14-244 40-261 51-17 11 151 178 482 480 969 884 2179 1844 3752 2977 537 388 1342 952 1358 952 4 0-7-33-25-72zm-6571-2897c42-67 138-156 214-200 139-81 268-111 466-112 152 0 238 11 353 44 45 13 82 21 82 17 0-3-78-78-172-166-95-89-276-261-402-385l-228-223-39 44c-163 189-274 407-320 630-21 100-29 332-14 400 7 31 9 33 19 16 6-10 24-39 41-65zM70915 43724c-642-63-1342-490-2330-1424-1039-981-2113-2299-3024-3710-178-275-447-708-457-735-5-12-92-15-567-17l-562-3-51-27c-69-36-108-84-177-220-69-134-80-194-52-278 21-62 80-132 140-163 39-21 52-22 433-25 244-2 392-7 392-13 0-13-1090-1996-1149-2089-91-145-539-752-845-1145-476-612-823-1011-1203-1385-401-395-713-627-948-705-69-23-179-30-248-15-82 17-114 48-128 125-40 220 93 617 374 1115 39 69 643 1066 1343 2215 699 1150 1282 2111 1294 2135 54 107 14 255-91 332-77 57-125 63-310 38-561-74-705-75-1067-9-143 26-170 29-217 19-59-12-135-58-164-98-33-47-1777-3015-1883-3204-141-254-343-669-426-878-248-626-290-1016-155-1470 108-364 413-728 752-900 257-129 582-179 863-131 352 61 799 311 1221 683 37 33 67 57 67 55 0-3-117-214-261-469-734-1302-1068-1845-1427-2318-703-925-1566-1682-2392-2095-436-218-836-336-1290-380-323-32-567-10-917 80-253 65-413 39-529-87-107-116-131-296-59-439 93-183 305-282 683-319 259-25 720-9 1007 34 1434 218 3007 1179 4634 2832 1298 1318 2251 2689 3623 5209 355 652 449 830 1377 2630l330 640 622 3c343 1 626-1 629-5 4-5-102-190-235-413-885-1480-1433-2407-1508-2547-249-464-404-899-457-1278-15-114-13-382 4-505 53-370 189-643 451-906 160-160 298-254 477-325 224-88 515-121 733-83 317 54 691 258 1102 601 127 105 513 470 513 484 0 29 22-3 65-97 214-467 661-820 1190-942 363-84 868-81 1368 9 768 138 1480 502 2007 1029 341 340 550 694 650 1100 48 195 55 267 55 525-1 205-4 257-23 360-53 284-134 542-278 892-319 772-476 1250-546 1659-16 97-21 170-21 294 0 166 25 405 45 445 6 11 120 130 254 263 577 577 888 958 1040 1276 70 146 97 246 98 361 1 306-221 496-537 457-377-47-731-352-1058-912-173-296-307-623-429-1046-20-70-31-86-388-530-202-253-460-571-574-709-114-137-348-423-521-635l-313-385-145-6c-169-8-281-30-435-88-230-87-428-224-660-455-422-423-734-955-869-1482-35-136-75-376-75-453 0-39-6-51-57-110-271-313-643-686-848-850-226-182-410-291-562-332-96-26-220-23-280 8-59 31-68 58-68 208 1 146 15 217 87 414 76 211 212 460 733 1351 1702 2909 1959 3346 1969 3352 6 4 310 8 676 8l665 0 62 29c74 35 104 74 182 228 68 135 77 201 39 284-35 76-70 114-136 146l-57 28-507 5-508 5 501 845c276 465 512 868 525 895 49 104 22 241-62 314-87 77-161 92-290 61-258-62-528-84-734-60-58 6-107 14-109 16-2 2 67 77 155 167 961 984 1502 1831 1623 2539 53 307 34 530-61 728-33 70-56 100-127 170-97 96-182 144-317 180-77 20-244 32-329 24zm151-694l27-11-6-92c-15-276-261-712-733-1301-609-761-1561-1717-2469-2482-243-205-434-358-440-352-8 8 506 896 763 1318 377 618 608 960 900 1335 733 939 1360 1496 1781 1580 82 16 142 18 177 5zm-2528-4637c-171-285-318-526-327-536-16-16-45-17-409-15l-393 3 150 103c330 228 811 586 1121 836 85 68 158 125 162 125 4 1-133-232-304-516zm4096-2323c3-212 10-459 17-550 19-280 17-781-4-945-51-397-149-720-327-1080-199-401-436-733-749-1046-292-291-545-456-834-544-226-68-488-73-677-13-240 76-434 261-507 482-24 72-27 97-27 226-1 162 14 228 80 365 68 140 231 333 366 436 128 96 233 141 475 204 247 64 362 104 528 185 156 77 261 147 359 240 187 179 281 363 305 602 17 174-7 324-75 461-19 37-34 73-34 78 0 6 130 169 288 362 158 194 402 493 542 666 241 297 255 312 261 285 4-16 10-202 13-414zM26945 43090c-357-119-735-131-1104-35-122 31-210 18-288-44-39-31-65-68-137-197-794-1418-1832-3192-3301-5644-413-690-836-1399-940-1575-163-277-198-331-265-400-42-44-125-145-185-225-1370-1827-2562-2880-3545-3131-202-52-426-70-600-49-382 47-545 218-566 594-19 320 86 700 321 1165 87 171 280 508 309 539 7 7 127 37 267 67 1433 303 2487 634 3159 991 602 320 998 734 1128 1180 46 156 57 234 57 404-1 139-4 179-24 255-48 187-147 353-298 496-145 138-275 218-459 282-155 54-269 71-484 70-560-1-1262-213-2110-637-666-334-1293-732-1755-1116-858-713-1354-1500-1486-2358-30-198-38-587-15-772 60-477 232-867 534-1212 321-368 744-603 1207-674 165-25 438-29 595-10 318 39 612 129 945 290 430 208 825 479 1300 891 163 142 493 453 613 579 46 48 85 86 86 84 2-2-1-43-6-93-13-122-4-430 16-540 36-200 68-300 146-460 244-499 709-788 1228-762 572 28 1267 540 2182 1607 73 85 173 206 223 267 50 62 92 111 94 109 2-2 10-51 18-108 74-563 341-1055 765-1410 295-247 631-397 1010-449 145-21 500-18 635 4 714 118 1417 506 2240 1236 160 142 560 536 743 731 75 80 139 146 142 148 4 1 10-41 13-95 30-449 227-914 539-1278 384-446 824-689 1368-755 201-24 490-3 710 51 682 170 1417 662 2275 1526l241 242-8-67c-16-149-5-370 28-537 70-354 272-689 549-912 272-218 604-326 954-310 378 17 802 234 1306 666 148 126 474 450 665 661 441 486 778 911 1455 1840 497 681 496 679 503 805 3 65 0 91-18 138-26 69-93 141-165 177-43 22-63 25-150 25-91 0-105-3-158-29-87-44-163-129-319-355-1059-1536-1935-2569-2533-2986-131-91-257-161-349-192-66-23-98-28-176-28-111 0-138 6-179 40-61 52-65 207-11 422 38 151 104 312 214 528 75 145 2503 4309 2538 4352 8 10 169 13 692 15 681 3 681 3 722 25 62 33 112 98 177 227 52 102 59 122 59 179 2 114-56 206-162 256l-55 26-503 3c-399 2-503 5-499 15 3 7 227 388 499 847 273 459 506 855 519 880 31 59 33 177 5 230-45 84-118 142-202 161-45 10-66 8-170-15-264-58-288-60-519-60-230 0-294 8-530 64-76 19-98 20-144 11-59-12-123-46-158-83-13-13-297-478-631-1033l-609-1010-514-5-514-5-55-31c-49-27-65-46-147-166-70-104-94-149-102-191-20-91 14-195 84-255 78-69 64-67 458-70 196-2 357-7 357-11 0-21-1165-1960-1213-2019-29-37-109-139-177-227-889-1149-1679-1985-2365-2502-419-315-783-503-1118-575-146-31-385-31-509 0-329 82-452 311-435 811 22 650 342 1435 966 2369 722 1083 1452 1843 1982 2067 199 84 426 106 536 53 66-32 94-139 72-280-24-155-84-265-218-399-115-114-199-170-471-313-348-184-540-316-721-496-274-272-393-544-376-859 17-299 150-520 382-631 110-52 188-70 337-77 203-9 350 25 541 125 474 249 1020 1015 1216 1708 89 316 123 680 91 969-59 521-341 874-775 969-415 91-937-11-1590-311-368-169-864-456-1240-717-355-247-614-464-921-770-383-384-649-725-894-1148-195-338-916-1188-1461-1723-978-959-1830-1412-2537-1347-429 39-602 230-602 666 0 328 112 695 351 1155 88 168 261 462 284 481 7 6 157 42 332 80 2133 459 3313 934 3870 1558 274 308 405 632 406 1002 0 191-25 304-100 458-142 290-471 538-812 612-423 92-983 6-1696-262-700-264-1621-772-2245-1240-701-525-1171-1057-1477-1672-75-149-105-195-251-390-1006-1339-1782-2157-2277-2400-118-58-177-76-249-76-99 0-127 44-128 200-1 113 20 203 92 396 222 593 565 1205 2403 4289 736 1235 1092 1830 2330 3894 721 1202 1317 2205 1324 2230 37 119-27 262-142 320-75 37-152 38-260 1zm-6867-5977c15-20 10-109-10-193-16-70-100-238-156-314-400-543-1377-1156-2460-1542-68-24-128-44-133-44-46 0 634 758 933 1040 672 636 1205 990 1601 1066 94 18 207 11 225-13zm9173 11c21-12 5-180-25-264-200-566-1280-1316-2570-1787-82-29-153-52-159-50-10 3 120 165 282 352 177 203 417 459 582 619 771 749 1430 1164 1812 1141 37-2 72-7 78-11z" fill="#b76e79" class="color000 svgShape"/><path d="M63205 40326 c-257 -37 -518 -180 -748 -411 -184 -183 -302 -365 -366 -563 -43 -131 -55 -222 -48 -380 7 -157 22 -222 79 -342 33 -69 56 -100 122 -165 127 -125 264 -187 461 -205 370 -36 726 113 1025 426 210 221 327 438 376 699 20 113 15 358 -10 450 -67 243 -238 412 -483 476 -99 26 -286 33 -408 15z" fill="#b76e79" class="color000 svgShape"/></g></svg></g></svg>